PathFileType	4	(X/Y/Z)	C:/Users/opensim2020/Desktop/walking_exp_matlab/subject01_walking06_straight_01.trc																																																																																																																															
DataRate	CameraRate	NumFrames	NumMarkers	Units	OrigDataRate	OrigDataStartFrame	OrigNumFrames																																																																																																																											
100	100	4	43	mm	100	766	251																																																																																																																											
Frame#	Time	LFHD			RFHD			LBHD			RBHD			C7			T10			CLAV			STRN			RBAK			LSHO			LUPA			LELB			LFRM			LWRA			LWRB			LFIN			RSHO			RUPA			RELB			RFRM			RWRA			RWRB			RFIN			LASI			RASI			LPSI			RPSI			LTHI			LKNE			LTIB			LANK			LHEE			LTOE			RTHI			RKNE			RTIB			RANK			RHEE			RTOE			*39			*40			*41			*42		
		X1	Y1	Z1	X2	Y2	Z2	X3	Y3	Z3	X4	Y4	Z4	X5	Y5	Z5	X6	Y6	Z6	X7	Y7	Z7	X8	Y8	Z8	X9	Y9	Z9	X10	Y10	Z10	X11	Y11	Z11	X12	Y12	Z12	X13	Y13	Z13	X14	Y14	Z14	X15	Y15	Z15	X16	Y16	Z16	X17	Y17	Z17	X18	Y18	Z18	X19	Y19	Z19	X20	Y20	Z20	X21	Y21	Z21	X22	Y22	Z22	X23	Y23	Z23	X24	Y24	Z24	X25	Y25	Z25	X26	Y26	Z26	X27	Y27	Z27	X28	Y28	Z28	X29	Y29	Z29	X30	Y30	Z30	X31	Y31	Z31	X32	Y32	Z32	X33	Y33	Z33	X34	Y34	Z34	X35	Y35	Z35	X36	Y36	Z36	X37	Y37	Z37	X38	Y38	Z38	X39	Y39	Z39	X40	Y40	Z40	X41	Y41	Z41	X42	Y42	Z42	X43	Y43	Z43
																																																																																																																																		
1	0	-1364.90869	1651.30066	1283.45215	-1356.87585	1661.69067	1398.55396	-1481.34265	1606.70886	1287.13574	-1477.04199	1616.29773	1407.51892	-1524.83484	1421.36047	1308.01282	-1567.3175	1126.81995	1314.5564	-1390.27295	1351.73889	1355.95007	-1351.58032	1198.28711	1369.76929	-1607.16931	1230.83801	1369.8772	-1399.13062	1377.35645	1183.45667	-1379.51599	1190.39014	1105.60168	-1361.74023	1038.45959	1116.01782	-1290.10022	946.52283	1134.15283	-1202.07336	866.60388	1211.07056	-1235.14832	840.84607	1166.55554	-1174.41064	790.13837	1198.08484	-1497.77649	1388.66687	1478.09082	-1605.50842	1201.16907	1557.55701	-1617.67578	1076.69788	1564.047	-1614.07727	958.89368	1603.01599	-1547.55469	834.08264	1608.23181	-1600.14099	840.41156	1632.94946	-1571.08496	760.45038	1644.23901	-1370.67139	916.28809	1271.06006	-1430.58167	931.7099	1478.01135	-1566.14758	931.75	1271.45007	-1602.08398	937.16718	1413.79321	-1410.48792	578.38507	1247.19836	-1436.88867	446.22192	1272.30872	-1501.01501	265.53577	1270.06067	-1558.89917	59.77031	1336.08423	-1617.43958	34.06168	1378.64722	-1417.01147	26.08609	1368.54382	-1408.65161	617.76062	1572.25513	-1364.12256	465.23373	1572.98682	-1478.46729	329.51242	1562.38721	-1572.75183	149.38992	1506.88574	-1616.30603	128.18321	1442.23047	-1475.84058	53.38095	1546.80493	-1368.10193	1694.47437	1373.64709	1973.03955	1023.44049	-3102.02051	2012.49927	1021.85339	-3140.63916	NaN	NaN	NaN
2	0.01	-1358.26453	1651.70007	1286.70447	-1349.83118	1661.92822	1401.79053	-1474.49854	1606.3678	1290.86707	-1469.61438	1615.66626	1411.32214	-1517.1626	1421.41406	1311.98853	-1560.27429	1127.10876	1318.40955	-1382.21082	1351.521	1358.48523	-1343.77014	1197.93433	1371.48767	-1599.18811	1231.00757	1374.22998	-1392.63391	1377.86328	1186.26733	-1372.62573	1191.20959	1107.99243	-1353.75806	1039.59644	1117.97803	-1280.78357	948.45569	1136.37402	-1191.57104	870.01953	1213.70618	-1224.28137	843.66522	1169.25452	-1162.97205	794.24762	1200.95215	-1488.54102	1388.48328	1481.64697	-1596.41541	1201.20471	1561.56494	-1609.17444	1076.81482	1567.94153	-1605.68933	959.0257	1606.75818	-1539.45032	833.9671	1611.61682	-1591.92859	840.47614	1636.45642	-1563.14563	760.2204	1647.53101	-1365.78467	915.20502	1271.95471	-1421.97815	932.05164	1480.25903	-1559.79065	931.4978	1275.21094	-1594.2511	937.3197	1417.85938	-1407.98071	578.14667	1248.27832	-1435.36768	446.10583	1273.00037	-1500.2179	265.8808	1270.58557	-1558.78235	59.99923	1336.27686	-1616.5647	33.86899	1379.1189	-1416.48572	26.18161	1368.54944	-1397.68311	618.7981	1574.3728	-1351.08618	466.91956	1574.8761	-1459.78052	326.37756	1568.76599	-1545.98962	140.52881	1517.53577	-1590.36121	116.53263	1453.89832	-1444.66418	51.21345	1557.12634	-1361.29883	1694.72388	1376.84753	1973.08362	1023.60797	-3101.9646	2012.52429	1022.01703	-3140.56909	NaN	NaN	NaN
3	0.02	-1351.69678	1652.06238	1290.03101	-1342.70801	1662.15393	1404.98865	-1467.56042	1605.93823	1294.65723	-1462.27905	1615.11133	1415.19617	-1509.5658	1421.50647	1315.96021	-1553.65637	1127.78491	1322.22888	-1374.23315	1351.32861	1361.09595	-1336.84595	1197.37439	1372.74097	-1591.16748	1231.19287	1378.57654	-1386.09558	1378.29016	1189.11047	-1365.50342	1192.09668	1110.4563	-1345.32385	1040.09131	1119.70886	-1271.39514	950.40485	1138.57837	-1181.2605	873.38403	1216.36682	-1213.47302	846.47003	1171.94543	-1151.11841	797.94342	1203.87964	-1479.21326	1388.10474	1485.3103	-1587.2041	1201.25244	1565.68408	-1600.53882	1076.90747	1571.8761	-1597.11133	959.03192	1610.46729	-1531.1394	833.84039	1614.91711	-1583.5625	840.24493	1639.86353	-1555.01636	760.02954	1650.74609	-1359.01013	915.27161	1273.84619	-1413.3606	932.32831	1482.40942	-1553.64758	931.4527	1278.88831	-1586.45654	937.70404	1421.89587	-1405.28162	577.91498	1249.36145	-1433.70874	445.93582	1273.53455	-1499.5	266.27896	1271.10681	-1558.65857	60.32394	1336.48962	-1616.51062	34.62194	1379.37219	-1416.38879	25.97175	1368.49292	-1387.28979	619.55591	1575.99561	-1338.60193	468.474	1576.53015	-1440.79541	322.70511	1574.60327	-1519.10071	132.25046	1527.76953	-1563.12231	104.43986	1465.31335	-1412.77332	48.7606	1566.45496	-1354.56628	1694.87378	1380.30005	1973.08521	1023.71912	-3102.05469	2012.3988	1021.83691	-3140.69873	NaN	NaN	NaN
4	0.03	-1344.97473	1652.35425	1293.49097	-1335.66919	1662.26453	1408.41699	-1460.60034	1605.43933	1298.48865	-1454.82715	1614.44287	1419.05115	-1501.90845	1421.65674	1320.01135	-1546.41284	1128.05212	1326.12439	-1366.20752	1351.08008	1363.58264	-1328.05408	1197.13171	1375.04688	-1583.13232	1231.32886	1382.9845	-1379.54578	1378.74963	1191.93945	-1358.2915	1192.96875	1112.91431	-1337.36804	1041.495	1121.85486	-1261.84534	952.32135	1140.9115	-1171.17285	876.66547	1219.11658	-1202.80237	849.25885	1174.51917	-1139.7395	801.8811	1206.57678	-1469.93701	1387.82141	1488.98022	-1577.79993	1201.22009	1569.83044	-1591.81653	1076.94971	1575.81873	-1588.3999	958.9198	1614.26428	-1522.67578	833.62561	1618.17505	-1574.94397	840.05499	1643.33936	-1546.62244	759.78149	1653.98291	-1353.526	914.31726	1274.97986	-1404.81665	932.39337	1484.77893	-1547.40479	931.59589	1282.5437	-1578.49036	937.87695	1425.80762	-1402.62402	577.77423	1250.3175	-1432.1864	446.08112	1274.0918	-1498.80798	266.81293	1271.5304	-1558.36755	60.67543	1336.70959	-1616.13892	35.15422	1379.67883	-1416.13074	25.90873	1368.57446	-1377.5033	619.99323	1577.95129	-1326.79492	469.70798	1578.48535	-1422.15063	319.46021	1580.47595	-1493.12292	124.38318	1537.1239	-1535.33777	93.72031	1476.30823	-1380.10681	47.30646	1575.21814	-1347.92224	1694.88916	1383.75037	1973.07764	1023.43872	-3101.91309	2012.47058	1022.03851	-3140.7373	NaN	NaN	NaN
